<svg id="Layer_1" data-name="Layer 1" xmlns="http://www.w3.org/2000/svg" xmlns:xlink="http://www.w3.org/1999/xlink" viewBox="0 0 1885.99 1381"><defs><style>.cls-1,.cls-5{fill:none;stroke:#979797;stroke-linecap:square;}.cls-1{opacity:0.35;isolation:isolate;}.cls-2{fill:#f4f4f4;stroke:#ff7f00;}.cls-2,.cls-6{stroke-width:2px;}.cls-3{fill:url(#linear-gradient);}.cls-4{fill:url(#linear-gradient-2);}.cls-6{fill:#ffb282;stroke:#da5504;}.cls-7{fill:#fff;}</style><linearGradient id="linear-gradient" x1="639.53" y1="1043.55" x2="640.53" y2="1043.55" gradientTransform="matrix(99.64, 0, 0, -1264, -61956.89, 1319691.96)" gradientUnits="userSpaceOnUse"><stop offset="0" stop-color="#fff" stop-opacity="0.06"/><stop offset="1" stop-color="#fff"/></linearGradient><linearGradient id="linear-gradient-2" x1="640.53" y1="1043.55" x2="639.53" y2="1043.55" gradientTransform="matrix(99.64, 0, 0, -1264, -63743.22, 1319808.96)" xlink:href="#linear-gradient"/></defs><title>tour-graph-b190614221b8fcdee8075ff27447bd6e03925aad6330ef5bb737a9f07401ffcf</title><path class="cls-1" d="M424.3,964.5H642.15" transform="translate(21 -13)"/><path class="cls-2" d="M1865,1252l-1885,7V708H112.54l143.81-26,146.89-10,125.32-59L662.1,597l125.32-49,129.43-23,137.65-90,114-123,133.54-11,113-104,159.22-74,171.54-36H1865" transform="translate(21 -13)"/><path class="cls-3" d="M1765.33,13H1865V1277h-99.64V13Z" transform="translate(21 -13)"/><path class="cls-4" d="M-21,130H78.64V1394H-21V130Z" transform="translate(21 -13)"/><path class="cls-5" d="M29.85,629.5l1.54,1.5" transform="translate(21 -13)"/><ellipse class="cls-6" cx="1592.7" cy="111.5" rx="5.65" ry="5.5"/><ellipse class="cls-6" cx="1763.21" cy="73.5" rx="5.65" ry="5.5"/><ellipse class="cls-6" cx="1074.98" cy="422.23" rx="5.65" ry="5.5"/><ellipse class="cls-6" cx="938.36" cy="510.73" rx="5.65" ry="5.5"/><ellipse class="cls-6" cx="808.93" cy="534.73" rx="5.65" ry="5.5"/><ellipse class="cls-6" cx="682.58" cy="584.73" rx="5.65" ry="5.5"/><path class="cls-6" d="M529.07,618.23a5.5,5.5,0,1,0-5.65-5.5A5.58,5.58,0,0,0,529.07,618.23Z" transform="translate(21 -13)"/><ellipse class="cls-6" cx="425.78" cy="657.73" rx="5.65" ry="5.5"/><ellipse class="cls-6" cx="276.83" cy="668.73" rx="5.65" ry="5.5"/><ellipse class="cls-6" cx="137.13" cy="693.73" rx="5.65" ry="5.5"/><ellipse class="cls-6" cx="1189.51" cy="299.23" rx="5.65" ry="5.5"/><ellipse class="cls-6" cx="1322.54" cy="287.23" rx="5.65" ry="5.5"/><ellipse class="cls-6" cx="1436.56" cy="183.5" rx="5.65" ry="5.5"/><path class="cls-7" d="M1171.29,70l-1.42-1.91a5.93,5.93,0,0,1-3.6,1.89V65.93l1.12-.3a9.62,9.62,0,0,0,1-.38,4.55,4.55,0,0,0,1-.53,4.62,4.62,0,0,0,.73-0.69,2.69,2.69,0,0,0,.52-0.94,3.91,3.91,0,0,0,.17-1.21,3.61,3.61,0,0,0-1.24-2.77,5.37,5.37,0,0,0-3.31-1.3V55.87h-1.73v2a7.27,7.27,0,0,0-4.33,1.91l1.42,1.83a5.55,5.55,0,0,1,2.91-1.49V63.7c-0.53.14-1,.26-1.36,0.38a8.4,8.4,0,0,0-1.24.53,4.33,4.33,0,0,0-1.09.76,3.43,3.43,0,0,0-.7,1.06,3.6,3.6,0,0,0-.29,1.47,4,4,0,0,0,1.18,2.92,5.35,5.35,0,0,0,3.49,1.38v1.9h1.73V72.2a7.59,7.59,0,0,0,5-2.18h0Zm-3.07-8.33q0,1-2,1.58V60a2.55,2.55,0,0,1,1.43.56,1.48,1.48,0,0,1,.53,1.16h0ZM1164.54,70a2.6,2.6,0,0,1-1.57-.68,1.7,1.7,0,0,1-.52-1.21,1.27,1.27,0,0,1,.54-1.06,4.78,4.78,0,0,1,1.55-.71V70h0Z" transform="translate(21 -13)"/></svg>